<?xml version="1.0" encoding="UTF-8"?>
<svg width="200px" height="200px" viewBox="0 0 200 200" version="1.1" xmlns="http://www.w3.org/2000/svg" xmlns:xlink="http://www.w3.org/1999/xlink">
    <!-- Generator: Sketch 49 (51002) - http://www.bohemiancoding.com/sketch -->
    <title>Artboard</title>
    <desc>Created with Sketch.</desc>
    <defs></defs>
    <g id="Artboard" stroke="none" stroke-width="1" fill="none" fill-rule="evenodd">
        <g id="Page-1-Copy" transform="translate(8.000000, 58.000000)">
            <g id="Group-7">
                <path d="M57.9787984,77.5425935 L57.9787984,77.5486258 L57.9848412,77.5486258 C57.9908839,77.5486258 57.9908839,77.5606903 58.0029695,77.5606903 C58.0090123,77.5667226 58.0150551,77.5606903 58.0271407,77.5606903 C64.100149,79.7865935 70.4329974,81.4997548 76.935044,82.6277871 C76.8383593,82.7303355 76.7477174,82.8328839 76.6570755,82.9354323 C76.7718886,82.8992387 76.8987873,82.8690774 77.0136004,82.8328839 C77.1404991,82.7906581 77.2613549,82.7424 77.3882536,82.7001742 C94.3322488,85.5775613 112.351861,84.6003355 129.749066,79.0747871 C142.596047,74.9909484 153.871901,68.8078839 163.274489,61.1348516 L163.25636,61.1891419 C165.709735,59.0597548 168.713004,57.3405613 172.181568,56.2426903 C176.206069,54.9638516 180.357468,54.668271 184.309456,55.1991097 L184.315499,55.1930774 L184.321541,55.1991097 C184.436354,55.2232387 184.551168,55.1629161 184.587424,55.0603677 C184.623681,54.9638516 184.55721,54.855271 184.44844,54.8251097 C184.436354,54.8190774 184.430312,54.8311419 184.418226,54.8251097 C180.635437,53.7453355 176.780134,52.8404968 172.858361,52.1588516 L172.803975,52.1769484 C172.810018,52.1709161 172.816061,52.1588516 172.822104,52.1528194 C155.75121,49.1849484 137.562399,50.1320129 120.008082,55.7118516 C108.762442,59.2829484 98.7253602,64.4646581 90.09625,70.8407548 L90.09625,70.8347226 C86.9781682,73.229529 83.3041492,75.1719161 79.1648351,76.4869484 C72.1431082,78.7188839 64.8373699,78.8334968 58.1479966,77.1987548 L58.1419538,77.1987548 C58.135911,77.1987548 58.1298682,77.1927226 58.1238254,77.1927226 L58.1177826,77.1987548 C58.0210979,77.1806581 57.9123276,77.2289161 57.8700281,77.3194 C57.8398141,77.4159161 57.8881564,77.5003677 57.9787984,77.5425935" id="Fill-1" fill="#4181C3"></path>
                <path d="M0.0350482069,0.713945161 C0.0410910012,0.726009677 0.0410910012,0.732041935 0.0471337955,0.738074194 C0.0531765897,0.744106452 0.059219384,0.744106452 0.0652621783,0.75013871 C4.19249068,5.49752581 8.86357066,9.88900968 14.0180742,13.846171 C13.8790899,13.9004613 13.7401057,13.9487194 13.5950786,13.9969774 C13.7280201,14.0211065 13.848876,14.0452355 13.9818174,14.0693645 C14.1147589,14.0874613 14.2537432,14.0995258 14.3866846,14.1176226 C27.8802443,24.3603968 44.6308701,31.6413323 63.520645,34.5428484 C77.473457,36.6963645 91.2631136,36.2499774 104.243036,33.6138806 C104.23095,33.6319774 104.212822,33.6440419 104.194693,33.6621387 C107.663257,32.8538161 111.379576,32.6788806 115.144237,33.2579774 C119.507134,33.9275581 123.416822,35.538171 126.643674,37.8063 L126.65576,37.8002677 L126.65576,37.8063 C126.746402,37.8847194 126.885386,37.8847194 126.976028,37.8063 C127.060627,37.7339129 127.06667,37.6072355 126.988113,37.5348484 C126.982071,37.5288161 126.969985,37.5288161 126.957899,37.5227839 C124.214471,34.8323968 121.283716,32.2807516 118.171677,29.8980097 C118.153548,29.8980097 118.13542,29.8919774 118.111249,29.8859452 C118.123334,29.8859452 118.13542,29.8799129 118.147505,29.8799129 C104.587475,19.4863323 87.7039077,12.1149129 68.6449346,9.17720323 C56.4384901,7.30117097 44.3589443,7.40371935 32.8353356,9.21942903 L32.8413784,9.21942903 C28.6114224,9.95536452 24.1639258,10.0398161 19.6680869,9.35213871 C12.0420805,8.16981613 5.42522071,4.9666871 0.397615864,0.484719355 L0.39157307,0.478687097 C0.385530276,0.472654839 0.379487481,0.472654839 0.373444687,0.466622581 L0.367401893,0.466622581 C0.282802773,0.4063 0.161946887,0.394235484 0.0773477669,0.460590323 C-0.0132941474,0.526945161 -0.0193369417,0.629493548 0.0350482069,0.713945161" id="Fill-3" fill="#6FC6D5"></path>
            </g>
        </g>
    </g>
</svg>